<svg width="48" height="48" viewBox="0 0 48 48" fill="none" xmlns="http://www.w3.org/2000/svg">
<path d="M34.5 39.5C34.5 40.0436 34.2566 40.6769 33.5813 41.3813C32.8988 42.0931 31.8397 42.8025 30.4154 43.4309C27.5708 44.6859 23.5361 45.5 19 45.5C14.4639 45.5 10.4292 44.6859 7.58465 43.4309C6.16033 42.8025 5.10118 42.0931 4.41872 41.3813C3.74344 40.6769 3.5 40.0436 3.5 39.5C3.5 38.9564 3.74344 38.3231 4.41872 37.6187C5.10118 36.9069 6.16033 36.1975 7.58465 35.5691C10.4292 34.3141 14.4639 33.5 19 33.5C23.5361 33.5 27.5708 34.3141 30.4154 35.5691C31.8397 36.1975 32.8988 36.9069 33.5813 37.6187C34.2566 38.3231 34.5 38.9564 34.5 39.5Z" stroke="#152B5B" stroke-width="3"/>
<path d="M28.5 11.4286C28.5 14.3725 27.3142 21.353 25.3468 27.6328C24.3663 30.7624 23.2233 33.6125 21.9967 35.6495C21.3825 36.6696 20.7865 37.4189 20.2341 37.898C19.6835 38.3755 19.2779 38.5 19 38.5C18.7221 38.5 18.3165 38.3755 17.7659 37.898C17.2135 37.4189 16.6175 36.6696 16.0033 35.6495C14.7767 33.6125 13.6337 30.7624 12.6532 27.6328C10.6858 21.353 9.5 14.3725 9.5 11.4286C9.5 5.89062 13.8068 1.5 19 1.5C24.1932 1.5 28.5 5.89062 28.5 11.4286Z" fill="white" stroke="#152B5B" stroke-width="3"/>
<circle cx="19" cy="13" r="3.5" stroke="#FF498B" stroke-width="3"/>
</svg>
