<svg width="48" height="48" viewBox="0 0 48 48" fill="none" xmlns="http://www.w3.org/2000/svg">
<mask id="path-1-inside-1" fill="white">
<path fill-rule="evenodd" clip-rule="evenodd" d="M16.3382 6C15.5284 6 14.7984 6.48841 14.4895 7.23703L12.3175 12.5H8C3.58172 12.5 0 16.0817 0 20.5V33.5C0 37.9183 3.58172 41.5 8 41.5H40C44.4183 41.5 48 37.9183 48 33.5V20.5C48 16.0817 44.4183 12.5 40 12.5H35.9524L33.6862 7.21217C33.371 6.4768 32.6479 6 31.8479 6L16.3382 6Z"/>
</mask>
<path d="M14.4895 7.23703L11.7164 6.09256V6.09256L14.4895 7.23703ZM16.3382 6V3V6ZM12.3175 12.5V15.5H14.3248L15.0906 13.6445L12.3175 12.5ZM35.9524 12.5L33.1949 13.6818L33.9742 15.5H35.9524V12.5ZM33.6862 7.21217L36.4436 6.03041V6.0304L33.6862 7.21217ZM31.8479 6V9V6ZM17.2626 8.38149C17.1081 8.7558 16.7432 9 16.3382 9V3C14.3136 3 12.4887 4.22101 11.7164 6.09256L17.2626 8.38149ZM15.0906 13.6445L17.2626 8.38149L11.7164 6.09256L9.54434 11.3555L15.0906 13.6445ZM8 15.5H12.3175V9.5H8V15.5ZM3 20.5C3 17.7386 5.23858 15.5 8 15.5V9.5C1.92487 9.5 -3 14.4249 -3 20.5H3ZM3 33.5V20.5H-3V33.5H3ZM8 38.5C5.23858 38.5 3 36.2614 3 33.5H-3C-3 39.5751 1.92487 44.5 8 44.5V38.5ZM40 38.5H8V44.5H40V38.5ZM45 33.5C45 36.2614 42.7614 38.5 40 38.5V44.5C46.0751 44.5 51 39.5751 51 33.5H45ZM45 20.5V33.5H51V20.5H45ZM40 15.5C42.7614 15.5 45 17.7386 45 20.5H51C51 14.4249 46.0751 9.5 40 9.5V15.5ZM35.9524 15.5H40V9.5H35.9524V15.5ZM30.9287 8.39392L33.1949 13.6818L38.7098 11.3182L36.4436 6.03041L30.9287 8.39392ZM31.8479 9C31.4478 9 31.0863 8.7616 30.9287 8.39393L36.4436 6.0304C35.6557 4.192 33.848 3.00001 31.8479 3V9ZM16.3382 9L31.8479 9V3L16.3382 3V9Z" fill="#152B5B" mask="url(#path-1-inside-1)"/>
<circle cx="24" cy="26" r="6.5" stroke="#FF498B" stroke-width="3"/>
<path d="M40 19L34 19" stroke="#152B5B" stroke-width="3" stroke-linecap="round"/>
</svg>
